/* $XConsortium: bitmap.xbm /main/5 1995/07/17 18:27:04 drk $ */
/*
 *  @OPENGROUP_COPYRIGHT@
 *  COPYRIGHT NOTICE
 *  Copyright (c) 1990, 1991, 1992, 1993 Open Software Foundation, Inc.
 *  Copyright (c) 1996, 1997, 1998, 1999, 2000 The Open Group
 *  ALL RIGHTS RESERVED (MOTIF). See the file named COPYRIGHT.MOTIF for
 *  the full copyright text.
 *  
 *  This software is subject to an open license. It may only be
 *  used on, with or for operating systems which are themselves open
 *  source systems. You must contact The Open Group for a license
 *  allowing distribution and sublicensing of this software on, with,
 *  or for operating systems which are not Open Source programs.
 *  
 *  See http://www.opengroup.org/openmotif/license for full
 *  details of the license agreement. Any use, reproduction, or
 *  distribution of the program constitutes recipient's acceptance of
 *  this agreement.
 *  
 *  EXCEPT AS EXPRESSLY SET FORTH IN THIS AGREEMENT, THE PROGRAM IS
 *  PROVIDED ON AN "AS IS" BASIS, WITHOUT WARRANTIES OR CONDITIONS OF ANY
 *  KIND, EITHER EXPRESS OR IMPLIED INCLUDING, WITHOUT LIMITATION, ANY
 *  WARRANTIES OR CONDITIONS OF TITLE, NON-INFRINGEMENT, MERCHANTABILITY
 *  OR FITNESS FOR A PARTICULAR PURPOSE
 *  
 *  EXCEPT AS EXPRESSLY SET FORTH IN THIS AGREEMENT, NEITHER RECIPIENT
 *  NOR ANY CONTRIBUTORS SHALL HAVE ANY LIABILITY FOR ANY DIRECT,
 *  INDIRECT, INCIDENTAL, SPECIAL, EXEMPLARY, OR CONSEQUENTIAL
 *  DAMAGES (INCLUDING WITHOUT LIMITATION LOST PROFITS), HOWEVER CAUSED
 *  AND ON ANY THEORY OF LIABILITY, WHETHER IN CONTRACT, STRICT
 *  LIABILITY, OR TORT (INCLUDING NEGLIGENCE OR OTHERWISE) ARISING IN
 *  ANY WAY OUT OF THE USE OR DISTRIBUTION OF THE PROGRAM OR THE
 *  EXERCISE OF ANY RIGHTS GRANTED HEREUNDER, EVEN IF ADVISED OF THE
 *  POSSIBILITY OF SUCH DAMAGES.
*/
/*
 * HISTORY
*/
#define foo_width 50
#define foo_height 50
static char foo_bits[] = {
   0xfc, 0x83, 0x3f, 0x00, 0x00, 0x00, 0x00, 0x02, 0x40, 0x40, 0x00, 0x00,
   0x00, 0x00, 0x01, 0x40, 0x40, 0x00, 0x00, 0x00, 0x00, 0x01, 0x40, 0x40,
   0x00, 0x00, 0x00, 0x00, 0x01, 0x40, 0x40, 0x00, 0x00, 0x00, 0x00, 0x01,
   0x40, 0x40, 0x00, 0x00, 0x00, 0x00, 0x01, 0x40, 0x40, 0x00, 0x00, 0x00,
   0x00, 0x01, 0x40, 0x40, 0x00, 0x00, 0x00, 0x00, 0x81, 0x43, 0x40, 0x00,
   0x00, 0x00, 0x00, 0x01, 0x44, 0x40, 0x00, 0x00, 0x00, 0x00, 0x01, 0x44,
   0x40, 0x00, 0x00, 0x00, 0x00, 0x01, 0x44, 0x40, 0x00, 0x00, 0x00, 0x00,
   0x02, 0x44, 0x40, 0x00, 0x00, 0x00, 0x00, 0xfc, 0x87, 0x3f, 0x00, 0x00,
   0x00, 0x00, 0x00, 0x00, 0x00, 0x00, 0x00, 0x00, 0x00, 0x00, 0x00, 0x00,
   0x00, 0x00, 0x00, 0x00, 0x00, 0x00, 0x00, 0x00, 0x00, 0x00, 0x00, 0x00,
   0x00, 0x00, 0x00, 0x00, 0x00, 0x00, 0x00, 0x00, 0x00, 0x00, 0x00, 0x00,
   0x00, 0x00, 0x00, 0x00, 0x00, 0x00, 0x00, 0x00, 0x00, 0x00, 0x00, 0x00,
   0x00, 0x00, 0x00, 0x00, 0x00, 0x00, 0x00, 0x00, 0x00, 0x00, 0xe0, 0x43,
   0x04, 0xc1, 0x0f, 0x09, 0x00, 0x10, 0x44, 0x04, 0x41, 0x00, 0x09, 0x00,
   0x10, 0x44, 0x04, 0x41, 0x00, 0x09, 0x00, 0x10, 0x44, 0x04, 0x41, 0x00,
   0x09, 0x00, 0x10, 0x44, 0x04, 0x41, 0x00, 0x09, 0x00, 0x10, 0x44, 0x04,
   0x41, 0x00, 0x09, 0x00, 0x10, 0x44, 0x04, 0x41, 0x00, 0x09, 0x00, 0x10,
   0x44, 0x04, 0x41, 0x00, 0x09, 0x00, 0xf0, 0x43, 0x04, 0x81, 0x07, 0x09,
   0x00, 0x10, 0x44, 0x04, 0x01, 0x08, 0x09, 0x00, 0x10, 0x44, 0x04, 0x01,
   0x08, 0x09, 0x00, 0x10, 0x44, 0x04, 0x01, 0x08, 0x09, 0x00, 0x10, 0x44,
   0x04, 0x01, 0x08, 0x09, 0x00, 0x10, 0x44, 0x04, 0x01, 0x08, 0x00, 0x00,
   0x10, 0x44, 0x04, 0x01, 0x08, 0x00, 0x00, 0x10, 0x44, 0x04, 0x01, 0x08,
   0x09, 0x00, 0xf0, 0x43, 0x7c, 0xdf, 0x07, 0x09, 0x00, 0x00, 0x00, 0x00,
   0x00, 0x00, 0x00, 0x00, 0x00, 0x00, 0x00, 0x00, 0x00, 0x00, 0x00, 0x00,
   0x00, 0x00, 0x00, 0x00, 0x00, 0x00, 0x00, 0x00, 0x00, 0x00, 0x00, 0x00,
   0x00, 0x00, 0x00, 0x00, 0x00, 0x00, 0x00, 0x00, 0x00, 0x00, 0x00, 0x00,
   0x00, 0x00, 0x00, 0x00, 0x00, 0x00, 0x00, 0x00, 0x00, 0x00, 0x00, 0x00,
   0x00, 0x00, 0x00, 0x00, 0x00, 0x00, 0x00, 0x00, 0x00, 0x00, 0x00, 0x00,
   0x00, 0x00, 0x00, 0x00, 0x00, 0x00, 0x00, 0x00, 0x00, 0x00, 0x00, 0x00,
   0x00, 0x00};
