/* $XConsortium: small.xbm /main/4 1995/07/17 18:26:24 drk $ */
/*
 * @OPENGROUP_COPYRIGHT@
 * COPYRIGHT NOTICE
 * Copyright (c) 1990, 1991, 1992, 1993 Open Software Foundation, Inc.
 * Copyright (c) 1996, 1997, 1998, 1999, 2000 The Open Group
 * ALL RIGHTS RESERVED (MOTIF).  See the file named COPYRIGHT.MOTIF for
 * the full copyright text.
 * 
 * This software is subject to an open license. It may only be
 * used on, with or for operating systems which are themselves open
 * source systems. You must contact The Open Group for a license
 * allowing distribution and sublicensing of this software on, with,
 * or for operating systems which are not Open Source programs.
 * 
 * See http://www.opengroup.org/openmotif/license for full
 * details of the license agreement. Any use, reproduction, or
 * distribution of the program constitutes recipient's acceptance of
 * this agreement.
 * 
 * EXCEPT AS EXPRESSLY SET FORTH IN THIS AGREEMENT, THE PROGRAM IS
 * PROVIDED ON AN "AS IS" BASIS, WITHOUT WARRANTIES OR CONDITIONS OF ANY
 * KIND, EITHER EXPRESS OR IMPLIED INCLUDING, WITHOUT LIMITATION, ANY
 * WARRANTIES OR CONDITIONS OF TITLE, NON-INFRINGEMENT, MERCHANTABILITY
 * OR FITNESS FOR A PARTICULAR PURPOSE
 * 
 * EXCEPT AS EXPRESSLY SET FORTH IN THIS AGREEMENT, NEITHER RECIPIENT
 * NOR ANY CONTRIBUTORS SHALL HAVE ANY LIABILITY FOR ANY DIRECT,
 * INDIRECT, INCIDENTAL, SPECIAL, EXEMPLARY, OR CONSEQUENTIAL
 * DAMAGES (INCLUDING WITHOUT LIMITATION LOST PROFITS), HOWEVER CAUSED
 * AND ON ANY THEORY OF LIABILITY, WHETHER IN CONTRACT, STRICT
 * LIABILITY, OR TORT (INCLUDING NEGLIGENCE OR OTHERWISE) ARISING IN
 * ANY WAY OUT OF THE USE OR DISTRIBUTION OF THE PROGRAM OR THE
 * EXERCISE OF ANY RIGHTS GRANTED HEREUNDER, EVEN IF ADVISED OF THE
 * POSSIBILITY OF SUCH DAMAGES.
 * 
 */
/*
 * HISTORY
 */
#define girlface_width 21
#define girlface_height 24
#define girlface_x_hot 0
#define girlface_y_hot 20
static char girlface_bits[] = {
   0x00, 0x00, 0x00, 0x00, 0x00, 0x00, 0x00, 0x7e, 0x00, 0x80, 0x8f, 0x00,
   0xe0, 0x0f, 0x01, 0xfe, 0x07, 0x01, 0xef, 0xc7, 0x02, 0xf3, 0x61, 0x04,
   0xf5, 0x01, 0x08, 0xf7, 0x05, 0x04, 0xfc, 0x0d, 0x08, 0xe6, 0x03, 0x0c,
   0xc2, 0x17, 0x08, 0x84, 0x03, 0x08, 0x00, 0x02, 0x07, 0x00, 0x83, 0x00,
   0xc0, 0x81, 0x00, 0xb0, 0xc1, 0x01, 0x0c, 0x63, 0x02, 0x02, 0x3c, 0x00,
   0x00, 0x00, 0x00, 0x00, 0x00, 0x00, 0x00, 0x00, 0x00, 0x00, 0x00, 0x00};
